<svg width="48" height="48" viewBox="0 0 48 48" fill="none" xmlns="http://www.w3.org/2000/svg">
<path d="M42 0L6 0C2.691 0 0 2.691 0 6L0 42C0 45.309 2.691 48 6 48H42C45.309 48 48 45.309 48 42V6C48 2.691 45.309 0 42 0Z" fill="#4CCFB9"/>
<path d="M24 11C20.6388 11.0001 17.4083 12.302 14.9862 14.6325C12.5642 16.9631 11.139 20.1411 11.0096 23.4999C10.8803 26.8586 12.0568 30.1368 14.2924 32.6468C16.5279 35.1568 19.6488 36.7033 23 36.9619V27.0001H20C19.7348 27.0001 19.4804 26.8948 19.2929 26.7072C19.1054 26.5197 19 26.2653 19 26.0001C19 25.7349 19.1054 25.4805 19.2929 25.293C19.4804 25.1055 19.7348 25.0001 20 25.0001H23V22.0001C23.0012 20.9396 23.423 19.9229 24.1729 19.173C24.9228 18.4231 25.9395 18.0013 27 18.0001H29C29.2652 18.0001 29.5196 18.1055 29.7071 18.293C29.8946 18.4805 30 18.7349 30 19.0001C30 19.2653 29.8946 19.5197 29.7071 19.7072C29.5196 19.8948 29.2652 20.0001 29 20.0001H27C26.4698 20.0007 25.9614 20.2116 25.5865 20.5866C25.2115 20.9615 25.0006 21.4699 25 22.0001V25.0001H28C28.2652 25.0001 28.5196 25.1055 28.7071 25.293C28.8946 25.4805 29 25.7349 29 26.0001C29 26.2653 28.8946 26.5197 28.7071 26.7072C28.5196 26.8948 28.2652 27.0001 28 27.0001H25V36.9619C28.3512 36.7033 31.472 35.1567 33.7076 32.6468C35.9431 30.1368 37.1197 26.8586 36.9903 23.4999C36.8609 20.1412 35.4357 16.9631 33.0137 14.6325C30.5917 12.302 27.3612 11.0001 24 11Z" fill="#FCDDEC"/>
</svg>
