<svg width="48" height="48" viewBox="0 0 48 48" fill="none" xmlns="http://www.w3.org/2000/svg">
<path d="M48 41.3333C48 43.1014 47.2976 44.7971 46.0474 46.0474C44.7971 47.2976 43.1014 48 41.3333 48H6.66667C4.89856 48 3.20286 47.2976 1.95262 46.0474C0.702379 44.7971 0 43.1014 0 41.3333L0 6.66667C0 4.89856 0.702379 3.20286 1.95262 1.95262C3.20286 0.702379 4.89856 0 6.66667 0L41.3333 0C43.1014 0 44.7971 0.702379 46.0474 1.95262C47.2976 3.20286 48 4.89856 48 6.66667V41.3333Z" fill="#4CCFB9"/>
<path d="M24 28C26.2091 28 28 26.2091 28 24C28 21.7909 26.2091 20 24 20C21.7909 20 20 21.7909 20 24C20 26.2091 21.7909 28 24 28Z" fill="#FCDDEC"/>
<path d="M29.5 11.5H18.5C16.6441 11.5021 14.8649 12.2403 13.5526 13.5526C12.2403 14.8649 11.5021 16.6441 11.5 18.5V29.5C11.5021 31.3559 12.2403 33.1351 13.5526 34.4474C14.8649 35.7597 16.6441 36.4979 18.5 36.5H29.5C31.3559 36.4979 33.1351 35.7597 34.4474 34.4474C35.7597 33.1351 36.4979 31.3559 36.5 29.5V18.5C36.4979 16.6441 35.7597 14.8649 34.4474 13.5526C33.1351 12.2403 31.3559 11.5021 29.5 11.5ZM24 30C22.8133 30 21.6533 29.6481 20.6666 28.9888C19.6799 28.3295 18.9108 27.3925 18.4567 26.2961C18.0026 25.1997 17.8838 23.9933 18.1153 22.8295C18.3468 21.6656 18.9182 20.5965 19.7574 19.7574C20.5965 18.9182 21.6656 18.3468 22.8295 18.1153C23.9933 17.8838 25.1997 18.0026 26.2961 18.4567C27.3925 18.9108 28.3295 19.6799 28.9888 20.6666C29.6481 21.6533 30 22.8133 30 24C29.9982 25.5907 29.3655 27.1158 28.2407 28.2407C27.1158 29.3655 25.5907 29.9982 24 30ZM30.5 19C30.2033 19 29.9133 18.912 29.6666 18.7472C29.42 18.5824 29.2277 18.3481 29.1142 18.074C29.0007 17.7999 28.9709 17.4983 29.0288 17.2074C29.0867 16.9164 29.2296 16.6491 29.4393 16.4393C29.6491 16.2296 29.9164 16.0867 30.2074 16.0288C30.4983 15.9709 30.7999 16.0006 31.074 16.1142C31.3481 16.2277 31.5824 16.42 31.7472 16.6666C31.912 16.9133 32 17.2033 32 17.5C32 17.8978 31.842 18.2794 31.5607 18.5607C31.2794 18.842 30.8978 19 30.5 19Z" fill="#FCDDEC"/>
</svg>
