<svg width="48" height="48" viewBox="0 0 48 48" fill="none" xmlns="http://www.w3.org/2000/svg">
<path d="M37.2262 0L10.7738 0C4.8236 0 0 4.8236 0 10.7738L0 37.2262C0 43.1764 4.8236 48 10.7738 48H37.2262C43.1764 48 48 43.1764 48 37.2262V10.7738C48 4.8236 43.1764 0 37.2262 0Z" fill="#4CCFB9"/>
<path d="M24 11C21.742 11.0006 19.5231 11.5892 17.5617 12.7077C15.6003 13.8263 13.9639 15.4363 12.8137 17.3794C11.6635 19.3224 11.039 21.5315 11.0018 23.7891C10.9645 26.0468 11.5158 28.2752 12.6014 30.2551L11.533 33.9945C11.435 34.3374 11.4305 34.7004 11.5199 35.0456C11.6094 35.3909 11.7896 35.706 12.0418 35.9582C12.294 36.2104 12.609 36.3906 12.9543 36.4801C13.2996 36.5695 13.6625 36.565 14.0054 36.467L17.7449 35.3987C19.4827 36.3522 21.4155 36.8958 23.3956 36.9878C25.3757 37.0798 27.3506 36.7178 29.1693 35.9296C30.988 35.1413 32.6024 33.9475 33.889 32.4397C35.1757 30.9318 36.1005 29.1496 36.5927 27.2295C37.085 25.3094 37.1317 23.3022 36.7292 21.3612C36.3267 19.4203 35.4858 17.5971 34.2707 16.0311C33.0555 14.465 31.4984 13.1975 29.7183 12.3255C27.9381 11.4535 25.9822 11.0001 24 11ZM27.0156 32C27.0119 32.0029 27.0051 32 26.9998 32C25.554 32 24.1223 31.715 22.7867 31.1612C21.4512 30.6074 20.2379 29.7958 19.2162 28.7727C18.1946 27.7496 17.3847 26.5351 16.8328 25.1988C16.2809 23.8624 15.9979 22.4303 15.9999 20.9845C16.0045 19.7939 16.4806 18.6535 17.3239 17.813C18.1673 16.9726 19.3093 16.5004 20.4999 16.5C20.828 16.5004 21.1502 16.5873 21.434 16.752C21.7178 16.9167 21.9531 17.1532 22.1163 17.4379L23.5776 19.9955C23.7537 20.304 23.8445 20.6538 23.8407 21.009C23.8369 21.3642 23.7387 21.712 23.5562 22.0167L22.6673 23.4982C23.1069 24.2603 23.7397 24.8931 24.5018 25.3328L25.9832 24.4439C26.2879 24.2613 26.6357 24.1631 26.9909 24.1593C27.3461 24.1555 27.696 24.2462 28.0045 24.4223L30.562 25.8837C30.8466 26.0468 31.0833 26.2821 31.2479 26.5659C31.4126 26.8497 31.4995 27.1719 31.4999 27.5C31.4995 28.6906 31.0274 29.8326 30.1869 30.676C29.3465 31.5193 28.2062 31.9954 27.0156 32Z" fill="#FCDDEC"/>
<path d="M25.0563 27.3324C24.918 27.4154 24.7617 27.4638 24.6007 27.4733C24.4397 27.4828 24.2787 27.4531 24.1317 27.387C22.5676 26.6843 21.3157 25.4324 20.613 23.8684C20.5469 23.7213 20.5173 23.5604 20.5268 23.3994C20.5363 23.2384 20.5846 23.082 20.6676 22.9437L21.8412 20.9877L20.4204 18.5012C19.7736 18.5215 19.1599 18.792 18.7084 19.2556C18.257 19.7193 18.003 20.34 18 20.9872C17.9983 22.1702 18.2299 23.3419 18.6814 24.4353C19.133 25.5287 19.7956 26.5223 20.6315 27.3594C21.4674 28.1965 22.4601 28.8606 23.5529 29.3137C24.6457 29.7668 25.817 30 27 30H27.0128C27.66 29.997 28.2807 29.743 28.7444 29.2916C29.2081 28.8401 29.4785 28.2264 29.4988 27.5796L27.0123 26.1588L25.0563 27.3324Z" fill="#FCDDEC"/>
</svg>
